<svg width="18" height="18" viewBox="0 0 18 18" fill="none" xmlns="http://www.w3.org/2000/svg">
	<path d="M7.371 7.551C6.858 7.551 6.453 8.001 6.453 8.55C6.453 9.099 6.867 9.549 7.371 9.549C7.884 9.549 8.289 9.099 8.289 8.55C8.298 8.001 7.884 7.551 7.371 7.551ZM10.656 7.551C10.143 7.551 9.738 8.001 9.738 8.55C9.738 9.099 10.152 9.549 10.656 9.549C11.169 9.549 11.574 9.099 11.574 8.55C11.574 8.001 11.169 7.551 10.656 7.551Z" fill="black" fill-opacity="0.29"/>
	<path d="M15.03 0H2.97C1.953 0 1.125 0.828 1.125 1.854V14.022C1.125 15.048 1.953 15.876 2.97 15.876H13.176L12.699 14.211L13.851 15.282L14.94 16.29L16.875 18V1.854C16.875 0.828 16.047 0 15.03 0ZM11.556 11.754C11.556 11.754 11.232 11.367 10.962 11.025C12.141 10.692 12.591 9.954 12.591 9.954C12.222 10.197 11.871 10.368 11.556 10.485C11.106 10.674 10.674 10.8 10.251 10.872C9.4802 11.0139 8.68969 11.0109 7.92 10.863C7.46813 10.7746 7.02529 10.645 6.597 10.476C6.37124 10.3892 6.15172 10.2869 5.94 10.17C5.913 10.152 5.886 10.143 5.859 10.125C5.841 10.116 5.832 10.107 5.823 10.098C5.661 10.008 5.571 9.945 5.571 9.945C5.571 9.945 6.003 10.665 7.146 11.007C6.876 11.349 6.543 11.754 6.543 11.754C4.554 11.691 3.798 10.386 3.798 10.386C3.798 7.488 5.094 5.139 5.094 5.139C6.39 4.167 7.623 4.194 7.623 4.194L7.713 4.302C6.093 4.77 5.346 5.481 5.346 5.481C5.346 5.481 5.544 5.373 5.877 5.22C6.84 4.797 7.605 4.68 7.92 4.653C7.974 4.644 8.019 4.635 8.073 4.635C9.63369 4.42376 11.2209 4.72038 12.6 5.481C12.6 5.481 11.889 4.806 10.359 4.338L10.485 4.194C10.485 4.194 11.718 4.167 13.014 5.139C13.014 5.139 14.31 7.488 14.31 10.386C14.31 10.386 13.545 11.691 11.556 11.754Z" fill="black" fill-opacity="0.29"/>
	</svg>
