<svg width="18" height="18" viewBox="0 0 18 18" fill="none" xmlns="http://www.w3.org/2000/svg">
<path d="M14.355 9.702C14.382 9.477 14.4 9.243 14.4 9C14.4 8.757 14.382 8.523 14.346 8.298L15.867 7.11C16.002 7.002 16.038 6.804 15.957 6.651L14.517 4.158C14.427 3.996 14.238 3.942 14.076 3.996L12.285 4.716C11.907 4.428 11.511 4.194 11.07 4.014L10.8 2.106C10.773 1.926 10.62 1.8 10.44 1.8H7.55996C7.37996 1.8 7.23596 1.926 7.20896 2.106L6.93896 4.014C6.49796 4.194 6.09296 4.437 5.72396 4.716L3.93296 3.996C3.77096 3.933 3.58196 3.996 3.49196 4.158L2.05196 6.651C1.96196 6.813 1.99796 7.002 2.14196 7.11L3.66296 8.298C3.62696 8.523 3.59996 8.766 3.59996 9C3.59996 9.234 3.61796 9.477 3.65396 9.702L2.13296 10.89C1.99796 10.998 1.96196 11.196 2.04296 11.349L3.48296 13.842C3.57296 14.004 3.76196 14.058 3.92396 14.004L5.71496 13.284C6.09296 13.572 6.48896 13.806 6.92996 13.986L7.19996 15.894C7.23596 16.074 7.37996 16.2 7.55996 16.2H10.44C10.62 16.2 10.773 16.074 10.791 15.894L11.061 13.986C11.502 13.806 11.907 13.563 12.276 13.284L14.067 14.004C14.229 14.067 14.418 14.004 14.508 13.842L15.948 11.349C16.038 11.187 16.002 10.998 15.858 10.89L14.355 9.702V9.702ZM8.99996 11.7C7.51496 11.7 6.29996 10.485 6.29996 9C6.29996 7.515 7.51496 6.3 8.99996 6.3C10.485 6.3 11.7 7.515 11.7 9C11.7 10.485 10.485 11.7 8.99996 11.7Z" fill="black" fill-opacity="0.29"/>
</svg>
