<svg width="18" height="18" viewBox="0 0 18 18" fill="none" xmlns="http://www.w3.org/2000/svg">
	<g clip-path="url(#clip0)">
	<path d="M8.98536 0C4.2598 0 0.383613 3.64444 0.0174255 8.27662L4.83974 10.2718C5.26281 9.98326 5.76314 9.82917 6.27524 9.82969C6.32193 9.82969 6.36918 9.8325 6.41586 9.8325L8.56068 6.72694V6.68306C8.56068 4.81106 10.0811 3.29062 11.9531 3.29062C13.8251 3.29062 15.3484 4.81387 15.3484 6.68587C15.3472 7.58573 14.989 8.44834 14.3524 9.08437C13.7159 9.7204 12.853 10.0779 11.9531 10.0783H11.8772L8.8183 12.2608C8.8183 12.3019 8.82111 12.3401 8.82111 12.3812C8.82111 13.7874 7.6843 14.9271 6.27805 14.9271C5.05349 14.9271 4.01624 14.0479 3.77886 12.8824L0.327926 11.4525C1.39724 15.2319 4.86336 18.0006 8.98536 18.0006C13.9539 18.0006 17.9825 13.9725 17.9825 9.00056C17.9825 4.02863 13.9545 0.0005625 8.98536 0.0005625V0ZM5.65424 13.6581L4.54949 13.2008C4.75294 13.6234 5.10411 13.957 5.53668 14.1384C6.0049 14.3323 6.53087 14.3326 6.99933 14.1393C7.46778 13.9461 7.84052 13.575 8.03586 13.1074C8.13278 12.8759 8.18292 12.6276 8.1834 12.3767C8.18388 12.1258 8.1347 11.8772 8.03868 11.6454C7.94395 11.4124 7.80367 11.2006 7.62604 11.0225C7.44841 10.8444 7.23701 10.7035 7.00424 10.6082C6.55574 10.4208 6.05253 10.4124 5.59799 10.5846L6.73761 11.0565C7.45536 11.358 7.79511 12.1815 7.49643 12.8993C7.19774 13.617 6.37143 13.9567 5.65368 13.6581H5.65424ZM14.2149 6.67969C14.2143 6.08049 13.9762 5.50596 13.5528 5.08199C13.1294 4.65803 12.5551 4.41921 11.9559 4.41788C11.3561 4.41787 10.7808 4.65617 10.3566 5.08034C9.93241 5.50452 9.69411 6.07982 9.69411 6.67969C9.69411 7.27956 9.93241 7.85486 10.3566 8.27903C10.7808 8.7032 11.3561 8.9415 11.9559 8.9415C12.5553 8.94061 13.1298 8.70193 13.5533 8.27787C13.9768 7.85381 14.2148 7.27903 14.2149 6.67969ZM10.2628 6.67688C10.2628 5.73637 11.0216 4.97756 11.9593 4.97756C12.897 4.97756 13.6614 5.73637 13.6614 6.67688C13.6614 7.61456 12.897 8.37619 11.9593 8.37619C11.0216 8.37619 10.2628 7.61456 10.2628 6.67688Z" fill="black" fill-opacity="0.29"/>
	</g>
	<defs>
	<clipPath id="clip0">
	<rect width="18" height="18" fill="white"/>
	</clipPath>
	</defs>
	</svg>
